<?xml version="1.0" encoding="utf-8"?>
<svg width="718" height="242" viewBox="0 0 718 242" fill="none" xmlns="http://www.w3.org/2000/svg">
  <defs>
    <radialGradient id="gradient_1" gradientUnits="userSpaceOnUse" cx="0" cy="0" r="1" gradientTransform="matrix(0 242 -357.592 0 359 0)">
      <stop offset="0" stop-color="#9000FF" />
      <stop offset="1" stop-color="#3700FF" />
    </radialGradient>
  </defs>
  <g>
    <g fill="url(#gradient_1)">
      <path d="M708 0C713.524 0 718 4.47639 718 10L718 232C718 237.524 713.524 242 708 242L10 242C4.47638 242 0 237.524 0 232L0 10C0 4.47639 4.47638 0 10 0L708 0Z" />
      <path d="M718 10C718 4.47639 713.524 0 708 0L10 0C4.47638 0 0 4.47639 0 10L0 232C0 237.524 4.47638 242 10 242L708 242C713.524 242 718 237.524 718 232L718 10ZM10 1L708 1Q711.728 1 714.364 3.63576Q717 6.2713 717 10L717 232Q717 235.729 714.364 238.364Q711.729 241 708 241L10 241Q6.27148 241 3.63574 238.364Q1 235.729 1 232L1 10Q1 6.27155 3.63574 3.63576Q6.27136 1 10 1Z" fill="#808080" fill-rule="evenodd" />
    </g>
    <path d="M16.1719 95.1797Q16.9453 96 18.0938 96L45.3516 96Q46.5703 96 46.5703 94.8047L46.5703 33.2109Q46.5703 32.0156 45.3516 32.0156L31.7812 32.0156Q30.5859 32.0156 30.5859 33.2109L30.5859 83.1797L22.7109 83.1797Q21.75 83.1797 21.75 82.2188L21.75 33.2109Q21.75 32.0156 20.5547 32.0156L6.96094 32.0156Q5.76562 32.0156 5.76562 33.2109L5.76562 83.6719Q5.76562 84.8203 6.58594 85.5938L16.1719 95.1797ZM58.0856 94.8047Q58.0856 96 59.2809 96L72.8747 96Q74.07 96 74.07 94.8047L74.07 44.7891L82.9059 44.7891L82.9059 94.8047Q82.9059 96 84.1012 96L97.6716 96Q98.8903 96 98.8903 94.8047L98.8903 44.2969Q98.8903 43.1953 98.07 42.375L88.4606 32.7891Q87.6872 32.0156 86.5387 32.0156L59.2809 32.0156Q58.0856 32.0156 58.0856 33.2109L58.0856 94.8047ZM110.406 94.8047Q110.406 96 111.601 96L138.484 96Q139.679 96 139.679 94.8047L139.679 84.375Q139.679 83.1797 138.484 83.1797L126.39 83.1797L126.39 33.2109Q126.39 32.0156 125.195 32.0156L111.601 32.0156Q110.406 32.0156 110.406 33.2109L110.406 94.8047ZM148.561 96Q147.366 96 147.366 94.8047L147.366 33.2109Q147.366 32.0156 148.561 32.0156L162.155 32.0156Q163.35 32.0156 163.35 33.2109L163.35 94.8047Q163.35 96 162.155 96L148.561 96ZM173.417 94.8047Q173.417 96 174.635 96L185.768 96Q186.143 96 186.542 95.7891Q186.963 95.5781 187.245 95.4141L202.315 87.9375Q202.713 87.75 202.831 87.3281Q202.948 86.8828 202.948 86.4844L202.948 65.625Q202.948 64.4062 202.221 64.0781L189.659 56.8828L189.659 48L202.221 42.8203Q202.948 42.4219 202.948 41.3672L202.948 33.2109Q202.948 32.0156 201.752 32.0156L188.792 32.0156Q188.159 32.0156 187.737 32.1797Q187.338 32.3438 186.87 32.6484L174.237 41.1797Q173.627 41.625 173.51 41.9766Q173.417 42.3281 173.417 43.1016L173.417 60.7266Q173.417 61.6875 174.237 62.1562L186.635 69.8438L186.635 78.375L174.049 84.1406Q173.557 84.375 173.487 84.7734Q173.417 85.1484 173.417 85.7812L173.417 94.8047ZM222.616 94.8047Q222.616 96 223.834 96L237.405 96Q238.6 96 238.6 94.8047L238.6 44.7891L247.014 44.7891Q248.209 44.7891 248.209 43.5938L248.209 33.2109Q248.209 32.0156 247.014 32.0156L214.225 32.0156Q213.03 32.0156 213.03 33.2109L213.03 43.5938Q213.03 44.7891 214.225 44.7891L222.616 44.7891L222.616 94.8047ZM259.734 94.8047Q259.734 96 260.929 96L294.374 96Q295.593 96 295.593 94.8047L295.593 84.375Q295.593 83.1797 294.374 83.1797L275.718 83.1797L275.718 69.6094L292.757 69.6094Q293.952 69.6094 293.952 68.3906L293.952 59.625Q293.952 58.4062 292.757 58.4062L275.718 58.4062L275.718 44.7891L294.374 44.7891Q295.593 44.7891 295.593 43.5938L295.593 33.2109Q295.593 32.0156 294.374 32.0156L260.929 32.0156Q259.734 32.0156 259.734 33.2109L259.734 94.8047ZM306.758 94.8047Q306.758 96 307.977 96L337.25 96Q338.399 96 339.172 95.1797L348.758 85.5938Q349.578 84.8203 349.578 83.6719L349.578 44.2969Q349.578 43.1953 348.758 42.375L339.172 32.7891Q338.399 32.0156 337.25 32.0156L307.977 32.0156Q306.758 32.0156 306.758 33.2109L306.758 94.8047ZM331.578 83.1797L322.789 83.1797L322.789 44.7891L331.578 44.7891Q333.594 44.7891 333.594 47.5312L333.594 80.4844Q333.594 83.1797 331.578 83.1797Z" fill="#BEFFEE" transform="translate(182 61)" />
  </g>
</svg>