<?xml version="1.0" encoding="utf-8"?>
<svg width="718" height="242" viewBox="0 0 718 242" fill="none" xmlns="http://www.w3.org/2000/svg">
  <defs>
    <radialGradient id="gradient_1" gradientUnits="userSpaceOnUse" cx="0" cy="0" r="1" gradientTransform="matrix(0 242 -357.592 0 359 0)">
      <stop offset="0" stop-color="#9000FF" />
      <stop offset="1" stop-color="#3700FF" />
    </radialGradient>
    <filter color-interpolation-filters="sRGB" x="-353" y="-118" width="355" height="120" id="filter_2">
      <feFlood flood-opacity="0" result="BackgroundImageFix_1" />
      <feColorMatrix type="matrix" values="0 0 0 0 0 0 0 0 0 0 0 0 0 0 0 0 0 0 1 0" in="SourceAlpha" />
      <feOffset dx="5" dy="5" />
      <feGaussianBlur stdDeviation="5" />
      <feColorMatrix type="matrix" values="0 0 0 0 0 0 0 0 0 0 0 0 0 0 0 0 0 0 0.251 0" />
      <feBlend mode="normal" in2="BackgroundImageFix_1" result="Shadow_2" />
      <feBlend mode="normal" in="SourceGraphic" in2="Shadow_2" result="Shape_3" />
    </filter>
    <filter color-interpolation-filters="sRGB" x="-110" y="-19" width="112" height="21" id="filter_3">
      <feFlood flood-opacity="0" result="BackgroundImageFix_1" />
      <feColorMatrix type="matrix" values="0 0 0 0 0 0 0 0 0 0 0 0 0 0 0 0 0 0 1 0" in="SourceAlpha" />
      <feOffset dx="5" dy="5" />
      <feGaussianBlur stdDeviation="2" />
      <feColorMatrix type="matrix" values="0 0 0 0 0 0 0 0 0 0 0 0 0 0 0 0 0 0 0.251 0" />
      <feBlend mode="normal" in2="BackgroundImageFix_1" result="Shadow_2" />
      <feBlend mode="normal" in="SourceGraphic" in2="Shadow_2" result="Shape_3" />
    </filter>
  </defs>
  <g>
    <g fill="url(#gradient_1)">
      <path d="M708 0C713.524 0 718 4.47639 718 10L718 232C718 237.524 713.524 242 708 242L10 242C4.47638 242 0 237.524 0 232L0 10C0 4.47639 4.47638 0 10 0L708 0Z" />
      <path d="M718 10C718 4.47639 713.524 0 708 0L10 0C4.47638 0 0 4.47639 0 10L0 232C0 237.524 4.47638 242 10 242L708 242C713.524 242 718 237.524 718 232L718 10ZM10 1L708 1Q711.728 1 714.364 3.63576Q717 6.2713 717 10L717 232Q717 235.729 714.364 238.364Q711.729 241 708 241L10 241Q6.27148 241 3.63574 238.364Q1 235.729 1 232L1 10Q1 6.27155 3.63574 3.63576Q6.27136 1 10 1Z" fill="#808080" fill-rule="evenodd" />
    </g>
    <g filter="url(#filter_2)" transform="translate(182 61)">
      <path d="M16.1719 95.1797Q16.9453 96 18.0938 96L45.3516 96Q46.5703 96 46.5703 94.8047L46.5703 33.2109Q46.5703 32.0156 45.3516 32.0156L31.7812 32.0156Q30.5859 32.0156 30.5859 33.2109L30.5859 83.1797L22.7109 83.1797Q21.75 83.1797 21.75 82.2188L21.75 33.2109Q21.75 32.0156 20.5547 32.0156L6.96094 32.0156Q5.76562 32.0156 5.76562 33.2109L5.76562 83.6719Q5.76562 84.8203 6.58594 85.5938L16.1719 95.1797ZM58.0856 94.8047Q58.0856 96 59.2809 96L72.8747 96Q74.07 96 74.07 94.8047L74.07 44.7891L82.9059 44.7891L82.9059 94.8047Q82.9059 96 84.1012 96L97.6716 96Q98.8903 96 98.8903 94.8047L98.8903 44.2969Q98.8903 43.1953 98.07 42.375L88.4606 32.7891Q87.6872 32.0156 86.5387 32.0156L59.2809 32.0156Q58.0856 32.0156 58.0856 33.2109L58.0856 94.8047ZM110.406 94.8047Q110.406 96 111.601 96L138.484 96Q139.679 96 139.679 94.8047L139.679 84.375Q139.679 83.1797 138.484 83.1797L126.39 83.1797L126.39 33.2109Q126.39 32.0156 125.195 32.0156L111.601 32.0156Q110.406 32.0156 110.406 33.2109L110.406 94.8047ZM148.561 96Q147.366 96 147.366 94.8047L147.366 33.2109Q147.366 32.0156 148.561 32.0156L162.155 32.0156Q163.35 32.0156 163.35 33.2109L163.35 94.8047Q163.35 96 162.155 96L148.561 96ZM173.417 94.8047Q173.417 96 174.635 96L185.768 96Q186.143 96 186.542 95.7891Q186.963 95.5781 187.245 95.4141L202.315 87.9375Q202.713 87.75 202.831 87.3281Q202.948 86.8828 202.948 86.4844L202.948 65.625Q202.948 64.4062 202.221 64.0781L189.659 56.8828L189.659 48L202.221 42.8203Q202.948 42.4219 202.948 41.3672L202.948 33.2109Q202.948 32.0156 201.752 32.0156L188.792 32.0156Q188.159 32.0156 187.737 32.1797Q187.338 32.3438 186.87 32.6484L174.237 41.1797Q173.627 41.625 173.51 41.9766Q173.417 42.3281 173.417 43.1016L173.417 60.7266Q173.417 61.6875 174.237 62.1562L186.635 69.8438L186.635 78.375L174.049 84.1406Q173.557 84.375 173.487 84.7734Q173.417 85.1484 173.417 85.7812L173.417 94.8047ZM222.616 94.8047Q222.616 96 223.834 96L237.405 96Q238.6 96 238.6 94.8047L238.6 44.7891L247.014 44.7891Q248.209 44.7891 248.209 43.5938L248.209 33.2109Q248.209 32.0156 247.014 32.0156L214.225 32.0156Q213.03 32.0156 213.03 33.2109L213.03 43.5938Q213.03 44.7891 214.225 44.7891L222.616 44.7891L222.616 94.8047ZM259.734 94.8047Q259.734 96 260.929 96L294.374 96Q295.593 96 295.593 94.8047L295.593 84.375Q295.593 83.1797 294.374 83.1797L275.718 83.1797L275.718 69.6094L292.757 69.6094Q293.952 69.6094 293.952 68.3906L293.952 59.625Q293.952 58.4062 292.757 58.4062L275.718 58.4062L275.718 44.7891L294.374 44.7891Q295.593 44.7891 295.593 43.5938L295.593 33.2109Q295.593 32.0156 294.374 32.0156L260.929 32.0156Q259.734 32.0156 259.734 33.2109L259.734 94.8047ZM306.758 94.8047Q306.758 96 307.977 96L337.25 96Q338.399 96 339.172 95.1797L348.758 85.5938Q349.578 84.8203 349.578 83.6719L349.578 44.2969Q349.578 43.1953 348.758 42.375L339.172 32.7891Q338.399 32.0156 337.25 32.0156L307.977 32.0156Q306.758 32.0156 306.758 33.2109L306.758 94.8047ZM331.578 83.1797L322.789 83.1797L322.789 44.7891L331.578 44.7891Q333.594 44.7891 333.594 47.5312L333.594 80.4844Q333.594 83.1797 331.578 83.1797Z" fill="#FFFFFF" />
    </g>
    <g filter="url(#filter_3)" transform="translate(425 171)">
      <path d="M3.15137 15.68L0.379395 5.88068L1.63721 5.88068L4.20068 15.1776L4.36816 15.1776L6.93164 5.88068L8.18945 5.88068L5.41748 15.68L3.15137 15.68ZM12.8815 15.8748Q11.8868 15.8748 11.1212 15.4202Q10.359 14.9656 9.92493 14.1624Q9.49085 13.3558 9.49085 12.2928L9.49085 11.9544Q9.49085 10.9769 9.93861 10.2078Q10.3864 9.43537 11.1622 8.98762Q11.9415 8.53986 12.9088 8.53986Q13.7633 8.53986 14.3854 8.84748Q15.0075 9.1551 15.4074 9.63361Q15.8073 10.1087 15.9952 10.6488Q16.1832 11.1854 16.1832 11.6468L16.1832 12.5423L10.5846 12.5423Q10.6256 13.5677 11.234 14.2034Q11.8424 14.8392 12.9088 14.8392Q13.9034 14.8392 14.3922 14.4188Q14.881 13.9984 15.0656 13.4105L16.1012 13.6907Q15.8073 14.658 15.0143 15.2664Q14.2247 15.8748 12.8815 15.8748ZM10.6119 11.5374L15.0929 11.5374Q15.0656 10.9324 14.7477 10.4915Q14.4332 10.0506 13.9445 9.81477Q13.4557 9.57551 12.9088 9.57551Q11.9826 9.57551 11.3536 10.1361Q10.7247 10.6966 10.6119 11.5374ZM17.7957 15.68L17.7957 14.6717L19.3884 14.6717L19.3884 9.74299L17.9631 9.74299L17.9631 8.73469L20.4822 8.73469L20.4822 9.66096L20.6497 9.66096Q20.9163 9.08674 21.4119 8.8133Q21.9109 8.53986 22.5261 8.53986Q23.5618 8.53986 24.2112 9.22688Q24.864 9.91047 24.905 11.2264L23.7566 11.3973Q23.7566 10.43 23.2952 10.0028Q22.8338 9.57551 22.1604 9.57551Q21.3093 9.57551 20.8958 10.201Q20.4822 10.8231 20.4822 11.7322L20.4822 14.6717L22.2459 14.6717L22.2459 15.68L17.7957 15.68ZM30.0995 15.8748Q29.0228 15.8748 28.3358 15.5057Q27.6488 15.1331 27.3139 14.5521Q26.9789 13.971 26.9345 13.3558L27.9735 13.1029Q28.0419 13.9027 28.5956 14.3846Q29.1493 14.8665 30.0448 14.8665Q30.8139 14.8665 31.2821 14.5657Q31.7504 14.265 31.7504 13.7215Q31.7504 13.1336 31.289 12.8807Q30.8275 12.6278 29.7919 12.5594Q28.6024 12.4739 27.9496 11.992Q27.3002 11.5067 27.3002 10.6112L27.3002 10.5291Q27.3002 9.86945 27.6625 9.42854Q28.0282 8.98762 28.6024 8.76545Q29.1767 8.53986 29.8192 8.53986Q30.7455 8.53986 31.3539 8.85432Q31.9623 9.16877 32.2836 9.66779Q32.6049 10.1634 32.6767 10.6966L31.641 10.9495Q31.5829 10.2762 31.1078 9.90022Q30.6327 9.52082 29.8773 9.52082Q29.2894 9.52082 28.8246 9.77375Q28.3632 10.0233 28.3632 10.5291Q28.3632 11.0316 28.7904 11.2982Q29.2177 11.5648 30.3524 11.6468Q31.5556 11.7459 32.1981 12.2313Q32.8441 12.7132 32.8441 13.6361L32.8441 13.7215Q32.8441 14.7264 32.0785 15.3006Q31.3163 15.8748 30.0995 15.8748ZM38.6265 7.64436Q38.2334 7.64436 37.9395 7.35041Q37.6455 7.05647 37.6455 6.6634Q37.6455 6.25666 37.9395 5.96955Q38.2334 5.68244 38.6265 5.68244Q39.0332 5.68244 39.3203 5.96955Q39.6074 6.25666 39.6074 6.6634Q39.6074 7.05647 39.3203 7.35041Q39.0332 7.64436 38.6265 7.64436ZM35.6597 15.68L35.6597 14.6717L38.0933 14.6717L38.0933 9.74299L35.9092 9.74299L35.9092 8.73469L39.187 8.73469L39.187 14.6717L41.4532 14.6717L41.4532 15.68L35.6597 15.68ZM47.1227 15.8748Q46.1999 15.8748 45.4069 15.4578Q44.6173 15.0374 44.1252 14.241Q43.6364 13.4412 43.6364 12.2928L43.6364 12.1253Q43.6364 10.9905 44.1252 10.1873Q44.6173 9.38068 45.4069 8.96027Q46.1999 8.53986 47.1227 8.53986Q48.049 8.53986 48.8385 8.96027Q49.6315 9.38068 50.1203 10.1873Q50.609 10.9905 50.609 12.1253L50.609 12.2928Q50.609 13.4412 50.1203 14.241Q49.6315 15.0374 48.8385 15.4578Q48.049 15.8748 47.1227 15.8748ZM47.1227 14.8392Q47.7961 14.8392 48.3258 14.5316Q48.859 14.2239 49.1735 13.6497Q49.4914 13.0755 49.4914 12.2928L49.4914 12.1253Q49.4914 11.3665 49.1735 10.7957Q48.859 10.2215 48.319 9.90022Q47.7824 9.57551 47.1227 9.57551Q46.4665 9.57551 45.9264 9.90022Q45.3864 10.2215 45.0719 10.7957Q44.7575 11.3665 44.7575 12.1253L44.7575 12.2928Q44.7575 13.0755 45.0719 13.6497Q45.3864 14.2239 45.9264 14.5316Q46.4665 14.8392 47.1227 14.8392ZM52.6248 15.68L52.6248 8.73469L53.7185 8.73469L53.7185 9.91047L53.886 9.91047Q54.5286 8.53986 56.1248 8.53986Q57.3313 8.53986 58.0423 9.2884Q58.7566 10.0369 58.7566 11.5374L58.7566 15.68L57.6663 15.68L57.6663 11.7596Q57.6663 10.6693 57.1741 10.1224Q56.6853 9.57551 55.8445 9.57551Q54.867 9.57551 54.2928 10.2557Q53.7185 10.9324 53.7185 12.0672L53.7185 15.68L52.6248 15.68ZM72.8267 15.8748Q71.2169 15.8748 70.3008 14.846Q69.3848 13.8172 69.3848 11.8724L69.3848 9.6883Q69.3848 7.79816 70.3008 6.74201Q71.2169 5.68244 72.8267 5.68244Q74.4537 5.68244 75.3628 6.74201Q76.272 7.79816 76.272 9.6883L76.272 11.8724Q76.272 13.8172 75.3628 14.846Q74.4537 15.8748 72.8267 15.8748ZM72.8267 14.8118Q73.9615 14.8118 74.5289 14.0154Q75.0962 13.2156 75.0962 11.7869L75.0962 9.77033Q75.0962 8.42707 74.5289 7.58967Q73.9615 6.74885 72.8267 6.74885Q71.6954 6.74885 71.128 7.58967Q70.5606 8.42707 70.5606 9.77033L70.5606 11.7869Q70.5606 13.2156 71.128 14.0154Q71.6954 14.8118 72.8267 14.8118ZM72.8267 11.6776Q72.4781 11.6776 72.2046 11.4041Q71.9312 11.1307 71.9312 10.7786Q71.9312 10.4163 72.2046 10.1497Q72.4781 9.88313 72.8267 9.88313Q73.1924 9.88313 73.459 10.1497Q73.7256 10.4163 73.7256 10.7786Q73.7256 11.1307 73.459 11.4041Q73.1924 11.6776 72.8267 11.6776ZM81.3947 15.8748Q81.0051 15.8748 80.7111 15.5809Q80.4172 15.2869 80.4172 14.8973Q80.4172 14.4905 80.7111 14.2034Q81.0051 13.9163 81.3947 13.9163Q81.8015 13.9163 82.0886 14.2034Q82.3757 14.4905 82.3757 14.8973Q82.3757 15.2869 82.0886 15.5809Q81.8015 15.8748 81.3947 15.8748ZM86.6746 15.68L86.6746 14.5897L89.4466 14.5897L89.4466 6.3968L89.2791 6.3968L87.6693 10.0814L86.5071 10.0814L86.5071 9.99592L88.3392 5.88068L90.6224 5.88068L90.6224 14.5897L93.3944 14.5897L93.3944 15.68L86.6746 15.68ZM98.5307 15.8748Q98.1411 15.8748 97.8471 15.5809Q97.5532 15.2869 97.5532 14.8973Q97.5532 14.4905 97.8471 14.2034Q98.1411 13.9163 98.5307 13.9163Q98.9375 13.9163 99.2246 14.2034Q99.5117 14.4905 99.5117 14.8973Q99.5117 15.2869 99.2246 15.5809Q98.9375 15.8748 98.5307 15.8748ZM107.253 15.8748Q106.149 15.8748 105.349 15.4339Q104.552 14.993 104.125 14.2581Q103.698 13.5233 103.698 12.6278L103.698 11.8724L104.874 11.8724L104.874 12.5423Q104.874 13.595 105.544 14.1898Q106.217 14.7845 107.225 14.7845Q107.84 14.7845 108.336 14.5111Q108.835 14.2376 109.122 13.783Q109.409 13.3284 109.409 12.7679L109.409 12.6824Q109.409 11.8006 108.849 11.305Q108.292 10.8094 107.451 10.8094L106.135 10.8094L106.135 9.18244L109.327 7.1385L109.327 6.97102L103.783 6.97102L103.783 5.88068L110.336 5.88068L110.336 7.6717L107.143 9.71564L107.143 9.88313L107.704 9.88313Q108.445 9.88313 109.102 10.2078Q109.761 10.5291 110.171 11.1375Q110.585 11.7459 110.585 12.6414L110.585 12.8944Q110.585 13.7352 110.151 14.4154Q109.717 15.0921 108.962 15.4852Q108.206 15.8748 107.253 15.8748Z" fill="#FFFFFF" />
    </g>
  </g>
</svg>